FFmpeg version SVN-r25716, Copyright (c) 2000-2010 the FFmpeg developers  built on Nov 10 2010 12:23:18 with gcc 4.1.2 20080704 (Red Hat 4.1.2-48)  configuration: --enable-libmp3lame --enable-shared --disable-mmx --arch=x86_64  libavutil     50.33. 0 / 50.33. 0  libavcore      0.12. 1 /  0.12. 1  libavcodec    52.94. 4 / 52.94. 4  libavformat   52.84. 0 / 52.84. 0  libavdevice   52. 2. 2 / 52. 2. 2  libavfilter    1.59. 0 /  1.59. 0  libswscale     0.12. 0 /  0.12. 0Input #0, avi, from '/RAID10/data/converted_video_files/47663.avi':  Duration: 00:00:10.30, start: 0.000000, bitrate: 20982 kb/s    Stream #0.0: Video: msvideo1, rgb555le, 1024x1024, 20 tbr, 20 tbn, 20 tbc[buffer @ 0x11ecf510] w:1024 h:1024 pixfmt:rgb555le[ffsink @ 0x11eecde0] auto-inserting filter 'auto-inserted scaler 0' between the filter 'src' and the filter 'out'[scale @ 0x11eed100] w:1024 h:1024 fmt:rgb555le -> w:1024 h:1024 fmt:yuv420p flags:0x4Output #0, flv, to '/RAID10/data/converted_video_files/47663.flv':  Metadata:    encoder         : Lavf52.84.0    Stream #0.0: Video: flv, yuv420p, 1024x1024, q=2-31, 600 kb/s, 1k tbn, 24 tbcStream mapping:  Stream #0.0 -> #0.0Press [q] to stop encodingframe=    7 fps=  0 q=9.5 size=     585kB time=0.33 bitrate=14357.7kbits/s    frame=   15 fps= 13 q=30.2 size=     664kB time=0.75 bitrate=7257.1kbits/s    frame=   25 fps= 15 q=24.8 size=     709kB time=1.25 bitrate=4644.3kbits/s    frame=   36 fps= 16 q=31.0 size=     730kB time=1.79 bitrate=3336.6kbits/s    frame=   47 fps= 17 q=31.0 size=     778kB time=2.33 bitrate=2731.0kbits/s    frame=   57 fps= 17 q=31.0 size=     823kB time=2.83 bitrate=2378.1kbits/s    frame=   67 fps= 18 q=31.0 size=     867kB time=3.33 bitrate=2131.0kbits/s    frame=   73 fps= 17 q=24.8 size=     919kB time=3.62 bitrate=2076.0kbits/s    frame=   82 fps= 17 q=31.0 size=     943kB time=4.08 bitrate=1890.6kbits/s    frame=   92 fps= 17 q=31.0 size=     993kB time=4.58 bitrate=1774.1kbits/s    frame=   96 fps= 16 q=31.0 size=    1006kB time=4.79 bitrate=1719.2kbits/s    frame=  107 fps= 17 q=31.0 size=    1057kB time=5.33 bitrate=1623.7kbits/s    frame=  117 fps= 17 q=31.0 size=    1109kB time=5.83 bitrate=1556.6kbits/s    frame=  127 fps= 17 q=31.0 size=    1159kB time=6.33 bitrate=1499.4kbits/s    frame=  138 fps= 17 q=31.0 size=    1208kB time=6.88 bitrate=1439.6kbits/s    frame=  148 fps= 17 q=31.0 size=    1255kB time=7.38 bitrate=1394.4kbits/s    frame=  158 fps= 17 q=31.0 size=    1302kB time=7.87 bitrate=1355.1kbits/s    frame=  168 fps= 18 q=31.0 size=    1321kB time=8.38 bitrate=1291.9kbits/s    frame=  177 fps= 18 q=31.0 size=    1366kB time=8.83 bitrate=1267.0kbits/s    frame=  187 fps= 18 q=31.0 size=    1414kB time=9.33 bitrate=1241.1kbits/s    frame=  194 fps= 17 q=31.0 size=    1457kB time=9.71 bitrate=1229.4kbits/s    frame=  204 fps= 18 q=31.0 size=    1476kB time=10.21 bitrate=1184.2kbits/s    frame=  206 fps= 17 q=31.0 Lsize=    1508kB time=10.29 bitrate=1200.0kbits/s    video:1504kB audio:0kB global headers:0kB muxing overhead 0.227634%